<svg width="118" height="118" viewBox="0 0 118 118" fill="none" xmlns="http://www.w3.org/2000/svg">
  <path d="M93.9278 0H23.1013C10.3428 0 0 10.3428 0 23.1013V93.9278C0 106.686 10.3428 117.029 23.1013 117.029H93.9278C106.686 117.029 117.029 106.686 117.029 93.9278V23.1013C117.029 10.3428 106.686 0 93.9278 0Z" fill="#DC2626"/>
  <g transform="translate(10, 12) scale(0.37)" fill="none" stroke="white" stroke-linecap="round" stroke-linejoin="round" stroke-width="12">
    <path d="M151.99951,80V203.71853a8,8,0,0,0,3.5624,6.6564L166.554,217.703a8,8,0,0,0,12.19875-4.71612L191.99951,160"/>
    <path d="M191.99951,160a40,40,0,0,0,0-80h-40S97.54779,80,45.14845,36.05237a7.99844,7.99844,0,0,0-13.14894,6.11524V197.83239a7.99844,7.99844,0,0,0,13.14894,6.11524C97.54779,160,151.99951,160,151.99951,160Z"/>
  </g>
</svg>
